<?xml version="1.0" standalone="no"?>
<!DOCTYPE svg PUBLIC "-//W3C//DTD SVG 20010904//EN"
 "http://www.w3.org/TR/2001/REC-SVG-20010904/DTD/svg10.dtd">
<svg version="1.0" xmlns="http://www.w3.org/2000/svg"
 width="640.000000pt" height="1280.000000pt" viewBox="0 0 640.000000 1280.000000"
 preserveAspectRatio="xMidYMid meet">
<g transform="translate(0.000000,1280.000000) scale(0.100000,-0.100000)"
fill="#FFFFFF" stroke="none">
<path d="M3565 12781 c-22 -10 -57 -38 -77 -62 -78 -92 -73 -89 -130 -89 -64
0 -110 -25 -139 -75 -25 -41 -43 -44 -89 -10 -18 13 -53 32 -78 42 -43 16 -45
16 -58 -2 -37 -50 0 -116 76 -138 64 -18 63 -38 -4 -83 -31 -20 -56 -40 -56
-45 0 -9 32 -15 128 -24 82 -8 110 -19 121 -48 11 -28 30 -219 33 -324 l2 -72
-68 -62 c-37 -34 -91 -95 -121 -134 -61 -83 -101 -107 -191 -113 -110 -7 -135
16 -290 268 -77 126 -151 199 -256 249 -71 34 -95 53 -167 131 -45 50 -99 99
-120 109 -37 19 -153 45 -255 57 -52 6 -65 12 -112 55 -68 61 -104 69 -185 40
-32 -12 -67 -20 -77 -17 -50 16 -211 24 -286 15 -182 -23 -253 -91 -244 -233
6 -82 59 -221 128 -337 37 -60 44 -81 49 -142 8 -96 31 -128 113 -159 l62 -24
73 -139 c79 -152 114 -193 192 -221 25 -9 73 -28 106 -41 33 -14 126 -48 206
-78 81 -29 173 -67 205 -85 104 -59 202 -129 209 -149 3 -10 -6 -49 -22 -87
-24 -63 -27 -81 -28 -202 0 -128 -1 -135 -24 -153 -13 -10 -30 -19 -38 -19
-21 0 -74 29 -110 61 -48 41 -90 45 -196 19 -51 -12 -95 -25 -99 -29 -9 -7
132 -104 175 -120 16 -6 49 -11 75 -11 67 0 112 -29 112 -72 0 -29 -15 -48
-120 -151 l-121 -119 30 -30 c46 -47 86 -27 177 87 30 39 32 40 107 43 71 4
81 2 165 -37 136 -63 153 -49 211 174 18 66 34 128 37 138 10 34 43 19 80 -39
92 -144 279 -568 323 -734 11 -41 25 -124 31 -185 25 -233 84 -480 139 -580
34 -61 48 -104 61 -181 12 -67 3 -163 -14 -170 -7 -3 -43 16 -82 41 -80 53
-353 189 -411 204 -54 15 -105 -2 -160 -52 -61 -56 -83 -99 -138 -264 -50
-153 -78 -206 -112 -211 -27 -4 -33 15 -30 97 l2 63 -49 45 c-56 50 -84 53
-104 10 -17 -35 -2 -115 39 -206 38 -83 47 -138 26 -147 -22 -8 -47 8 -138 87
-89 76 -119 85 -192 54 -20 -8 -47 -15 -61 -15 -14 0 -28 -5 -31 -10 -9 -14
71 -153 115 -201 31 -33 46 -40 124 -58 91 -20 126 -41 126 -72 0 -41 -117
-142 -200 -175 -56 -21 -106 -67 -120 -110 -7 -19 -33 -51 -61 -75 -66 -56
-65 -83 4 -87 55 -4 146 20 197 51 19 11 69 53 110 93 83 80 109 94 179 94 61
0 107 -30 141 -90 20 -38 25 -63 30 -160 10 -177 58 -298 110 -270 9 5 32 58
54 128 42 132 43 125 -21 230 -14 24 -31 63 -39 87 l-13 44 56 58 c67 70 104
124 172 261 28 56 57 102 65 102 17 0 118 -108 197 -211 32 -43 74 -87 94 -99
20 -12 38 -33 42 -48 3 -15 -1 -117 -11 -227 -51 -592 -54 -666 -36 -901 61
-774 287 -1523 740 -2459 245 -505 368 -819 445 -1138 47 -192 65 -346 65
-545 0 -517 -130 -954 -385 -1291 -122 -160 -249 -274 -652 -579 -406 -309
-538 -430 -519 -477 9 -25 57 -17 126 20 190 101 299 153 432 206 349 138 516
246 733 470 188 195 333 405 465 674 151 308 195 520 195 925 -2 563 -129
1150 -473 2170 -55 162 -112 336 -127 385 -15 50 -44 144 -65 210 -67 207
-150 581 -150 679 0 28 -5 71 -11 96 -18 72 -12 387 8 525 13 87 18 180 18
335 0 214 0 216 33 332 39 136 52 159 79 141 71 -49 178 -106 296 -159 182
-81 181 -80 173 -173 -3 -40 -20 -134 -37 -210 -24 -102 -31 -162 -32 -241 -1
-119 9 -174 65 -349 27 -87 46 -178 64 -300 13 -97 31 -195 40 -218 26 -72
124 -142 140 -99 3 7 -4 37 -15 66 -18 48 -19 56 -5 88 8 19 17 58 20 87 6 47
3 61 -26 117 -36 71 -32 103 14 133 59 39 163 -36 288 -206 31 -41 67 -83 81
-92 14 -9 67 -28 118 -42 51 -15 102 -31 112 -37 29 -15 42 4 24 33 -8 13 -18
44 -21 68 -4 24 -13 55 -21 70 -17 32 -103 121 -212 221 -98 89 -104 110 -46
160 56 49 131 80 266 107 138 27 159 39 133 75 -9 13 -27 40 -41 61 -25 36
-26 37 -90 37 -41 0 -92 -9 -142 -25 -87 -28 -163 -33 -163 -12 0 8 21 40 46
73 57 74 94 145 94 182 0 30 -17 50 -59 72 -36 18 -76 -7 -130 -81 -24 -33
-49 -58 -55 -56 -20 6 -18 123 3 210 75 307 77 357 19 480 -92 193 -241 357
-514 563 -61 46 -117 90 -124 99 -9 11 -11 46 -8 138 5 99 15 163 57 343 66
288 74 345 74 559 0 242 -29 427 -104 661 -116 365 -299 687 -526 926 -85 89
-130 147 -161 204 -24 43 -69 124 -99 179 -135 246 -143 263 -143 316 0 90 52
156 203 259 114 78 157 136 177 239 22 116 -23 229 -175 436 -101 138 -113
163 -99 203 16 44 72 64 197 69 121 4 157 9 157 21 0 4 -23 31 -50 60 -59 60
-86 65 -180 32 -30 -11 -61 -19 -67 -20 -24 0 -13 38 24 82 87 104 112 167 76
194 -24 18 -50 16 -98 -5z"/>
</g>
</svg>
